<svg width="23" height="39" viewBox="0 0 23 39" fill="none" xmlns="http://www.w3.org/2000/svg">
<path d="M15.697 25.7245C15.5216 25.656 3.98837 19.5823 3.81296 19.4909C3.06746 19.1713 2.4316 18.6004 1.99308 17.8469C0.94062 15.9517 1.55455 13.5313 3.37443 12.4353C4.62423 11.6818 6.09328 11.7275 7.25537 12.4581C7.40886 12.5266 18.4597 18.3264 18.6351 18.4406C18.8105 18.5091 18.964 18.6004 19.1394 18.6917C19.8849 19.0114 20.5207 19.5823 20.9593 20.3358C22.0117 22.231 21.4197 24.6514 19.5998 25.7474C18.35 26.5237 16.8591 26.4552 15.697 25.7245Z" fill="#7693FF" fill-opacity="0.4"/>
<path d="M13.6579 12.0375C13.6899 12.5395 13.5376 13.0506 13.1896 13.454C12.4631 14.2958 11.1633 14.3523 10.2899 13.5986C9.7474 13.1305 9.48873 12.4637 9.5442 11.8231C9.53444 11.7229 9.58796 3.6303 9.59496 3.52925C9.56289 3.02733 9.71519 2.51621 10.0633 2.11282C10.7897 1.27096 12.0895 1.21452 12.9629 1.9682C13.5054 2.43628 13.7641 3.10313 13.7086 3.74369C13.72 3.86061 13.6649 11.9365 13.6579 12.0375Z" fill="#D6FF62"/>
<path d="M13.6579 36.0376C13.6899 36.5395 13.5376 37.0506 13.1896 37.454C12.4631 38.2958 11.1633 38.3523 10.2899 37.5986C9.7474 37.1305 9.48873 36.4637 9.5442 35.8231C9.53444 35.7229 9.58796 27.6303 9.59496 27.5293C9.56289 27.0273 9.71519 26.5162 10.0633 26.1128C10.7897 25.271 12.0895 25.2145 12.9629 25.9682C13.5054 26.4363 13.7641 27.1031 13.7086 27.7437C13.72 27.8606 13.6649 35.9365 13.6579 36.0376Z" fill="#D6FF62"/>
<path d="M6.52315 34.7663C5.73701 35.3055 4.75701 35.5534 3.76247 35.378C1.68692 35.012 0.333915 32.9504 0.713631 30.7969C0.949455 29.4595 1.78429 28.3913 2.88111 27.8601C3.03482 27.747 16.2636 19.9824 16.4349 19.8958C17.221 19.3566 18.201 19.1087 19.1956 19.284C21.2711 19.65 22.6241 21.7117 22.2444 23.8652C22.0086 25.2026 21.1738 26.2708 20.0769 26.8019C19.8976 26.9339 6.69448 34.6796 6.52315 34.7663Z" fill="#86A0FE"/>
<path d="M6.52339 18.2944C5.7371 18.8344 4.75701 19.0828 3.76247 18.9074C1.70854 18.5453 0.3303 16.5003 0.714491 14.3214C0.950609 12.9823 1.7857 11.9127 2.88268 11.3806C3.03641 11.2673 16.2633 3.51331 16.4347 3.42652C17.2209 2.8865 18.201 2.63808 19.1956 2.81344C21.2711 3.17942 22.6237 5.24328 22.2436 7.39944C22.0074 8.73853 21.1723 9.80819 20.0754 10.3402C19.9 10.4497 6.69074 18.2303 6.52339 18.2944Z" fill="#86A0FE"/>
</svg>
